<svg width="32" height="32" viewBox="0 0 32 32" xmlns="http://www.w3.org/2000/svg">
    <g>
        <path fill="white" d="M12,17c0.8-4.2,1.9-5.3,6.1-6.1c0.5-0.1,0.8-0.5,0.8-1s-0.3-0.9-0.8-1C13.9,8.1,12.8,7,12,2.8C11.9,2.3,11.5,2,11,2
            c-0.5,0-0.9,0.3-1,0.8C9.2,7,8.1,8.1,3.9,8.9C3.5,9,3.1,9.4,3.1,9.9s0.3,0.9,0.8,1c4.2,0.8,5.3,1.9,6.1,6.1c0.1,0.5,0.5,0.8,1,0.8
            S11.9,17.4,12,17z M22,24c-2.8-0.6-3.4-1.2-4-4c-0.1-0.5-0.5-0.8-1-0.8s-0.9,0.3-1,0.8c-0.6,2.8-1.2,3.4-4,4c-0.5,0.1-0.8,0.5-0.8,1
            s0.3,0.9,0.8,1c2.8,0.6,3.4,1.2,4,4c0.1,0.5,0.5,0.8,1,0.8s0.9-0.3,1-0.8c0.6-2.8,1.2-3.4,4-4c0.5-0.1,0.8-0.5,0.8-1
            S22.4,24.1,22,24z M29.2,14c-2.2-0.4-2.7-0.9-3.1-3.1c-0.1-0.5-0.5-0.8-1-0.8c-0.5,0-0.9,0.3-1,0.8c-0.4,2.2-0.9,2.7-3.1,3.1
            c-0.5,0.1-0.8,0.5-0.8,1s0.3,0.9,0.8,1c2.2,0.4,2.7,0.9,3.1,3.1c0.1,0.5,0.5,0.8,1,0.8c0.5,0,0.9-0.3,1-0.8
            c0.4-2.2,0.9-2.7,3.1-3.1c0.5-0.1,0.8-0.5,0.8-1S29.7,14.1,29.2,14z"/>
    </g>
</svg> 